<svg version="1" xmlns="http://www.w3.org/2000/svg" width="1136" height="1136" viewBox="0 0 852.000000 852.000000"><path d="M175 233.9c-21.4 2-42.7 8.6-59.5 18.6-10.8 6.3-17.8 12-27.3 21.9-12.8 13.4-20.9 27-25.9 43.7-2.7 9.1-2.8 10.1-2.8 31.9 0 22.1.1 22.6 2.8 29.6 1.5 3.9 2.7 7.4 2.7 7.7 0 .3-5.3.7-11.7.9-10.4.3-12.5.6-17.7 3.1-11.9 5.5-25 19.9-28 30.7-1.9 6.6-2.1 22.1-.5 27.1 1.3 3.7 9.9 13.3 13.9 15.3 3.8 2 20 2.9 26.7 1.6 7.1-1.5 15.2-5.3 19-9l2.8-2.7v17.6c0 15.6.3 18.5 2.4 25.1 3.4 10.9 7.1 17.7 14 25.2 14.5 15.8 25.7 20.8 48.2 21.6 16.8.6 23.7-.6 38.8-6.3 13.7-5.3 25.1-12 33.5-19.6l6.1-5.6 3.4 6.1c5.4 9.8 20.9 30.8 33.1 45 26.1 30.2 57.6 53.9 94.2 70.7 19.3 8.9 36.1 14.1 65 20.4l7.7 1.7 1.7 4.6c4 11.3 7.8 17.8 14.4 24.4 4.7 4.7 7.8 6.9 10.6 7.6 5.5 1.5 31.2 2 51.1 1.1 62.9-3 126.6-27.7 174.4-67.8 12-10 18.4-17.1 19.3-21.2 1.6-8 .7-18.3-2.5-28.6l-3.2-10.2 4.9-5.7c15-17.3 28.1-35.4 38.3-53.2l5.3-9.2h16.7c30.9 0 47.4-5.8 65.4-23 20.4-19.3 28.9-40.2 30.4-74 1.6-37.7-7-62.6-28.9-83.6-8.6-8.2-13-11.5-21.5-15.7-10.9-5.6-20-7.8-34-8.4l-12.1-.6-2.7-7.6c-1.5-4.2-4.5-11.2-6.7-15.6-8-16.4-13.9-19.3-40.8-20.2-29.1-1-58.3 2.9-107.5 14.1-35.1 8.1-90.4 24.1-128 37.2-7.1 2.5-16.4 5.7-20.6 7.1l-7.6 2.6-6.6-4.7c-3.6-2.5-10-6.3-14.4-8.4l-7.8-3.7h-14.7c-13.7 0-14.8.2-17.7 2.3l-3.1 2.3-7.7-5.9c-40-30.2-82.5-48.9-127.7-56.2-14.3-2.3-43.8-3.3-57.6-2.1zm35.5 12.1c12.2 1.1 27.7 3.6 31.5 4.9 1.4.5 7.4 2.2 13.3 3.7 6.5 1.6 10.3 3 9.5 3.5-.7.4-1.7.4-2.3-.1-.5-.4-7.3-2-15-3.5-13.5-2.7-14.9-2.8-36-2.2-24.7.7-36.8 2.2-56.6 7.2-26.6 6.7-46.8 15.3-53.6 22.6-2.2 2.4-5.5 6-7.2 7.9-1.8 1.9-2.8 2.6-2.2 1.5.5-1.1 4.2-5.5 8.1-9.7 17.6-19 48-32.6 80-35.7 12.4-1.2 18.2-1.2 30.5-.1zm-10.3 13.7c2.6 2.3 2.3 6.1-.6 7.4-5.6 2.6-10.3-1.8-7.2-6.6 1.9-2.9 5.1-3.2 7.8-.8zm84.3 5c7.9 3.2 14.2 5.9 14 6.2-.6.6-14.5-4-14.5-4.9 0-.4-4-1.9-9-3.4-4.9-1.6-9-3-9-3.2 0-1.4 6 .3 18.5 5.3zm-122.7 6.5c1.9 1.9 1.5 6.6-.7 7.8-2.9 1.5-3.9 1.3-5.7-1.5-1.5-2.3-1.5-2.7 0-5 1.8-2.7 4.5-3.2 6.4-1.3zm143.7 3c1.4.6 2.5 1.5 2.5 2 0 1.1-.7 1-4-.7-4.7-2.4-3.4-3.6 1.5-1.3zm-75 2.3c1.4 1.3 2.5 3.1 2.5 4 0 2.5-4.6 6.5-7.6 6.5-3.6 0-6.4-2.6-6.4-6 0-6.4 6.9-9.2 11.5-4.5zm-16.6 3.1c1.7 1.4 3.1 3.2 3.1 3.9 0 2.2-5 5.4-10.9 7.1-3.1.8-6.4 1.9-7.3 2.4-3 1.7-6.4 1.1-8.9-1.6-2.2-2.3-2.2-2.7-.9-5.2 2-3.5 13.1-9.2 18.1-9.2 2.6 0 4.7.8 6.8 2.6zm90.9 1.9c-.6 1.4-1.3 2.3-1.5 2.1-.5-.5 1.5-4.6 2.2-4.6.3 0-.1 1.1-.7 2.5zM124 283c2.6 2.6 2.5 5.8-.2 8.7-2.7 2.9-5.5 2.9-8.5.1-2.7-2.5-2.9-5.4-.7-8.6 1.9-2.8 6.7-2.9 9.4-.2zm122.8 1.2c1.9 1.9 1.5 6.6-.7 7.8-3.1 1.6-4.9 1.2-6.7-1.5-1.5-2.3-1.5-2.7 0-5 1.8-2.7 5.4-3.3 7.4-1.3zm24.2 3.3c10.5 5.4 2.9 22-7.9 17.5-4.5-1.8-6.6-4.7-6.6-9 0-7.7 7.6-12.1 14.5-8.5zm431.7.2c1.5 3.8-22.6 21-51.2 36.7-14.7 8-17.4 9-34.5 13.1-5.8 1.3-20.2 5.6-32 9.4-41.8 13.4-55.4 17.2-71.5 19.6-18.5 2.8-36 1.4-44.3-3.6-5.6-3.2-20.1-15.1-20.2-16.4 0-1.3.7-1.6 36-13.6 28.2-9.6 34-11.4 61.5-19.5 20.5-6 57.1-15.1 78-19.3 26.5-5.4 45.9-7.9 63.3-8 12.5-.1 14.3.1 14.9 1.6zM293 295.5c-.7.8-1.8 1.5-2.4 1.5-.6 0-.2-.7.8-1.5 2.5-1.9 3.2-1.9 1.6 0zm-205.9 4.7c-1.7 4-4.1 7.1-4.1 5.4 0-1 5.4-10.6 5.7-10.2.2.2-.5 2.4-1.6 4.8zm74-.3c2 1.6 2.2 2.3 1.4 4.7-.9 2.4-1.6 2.9-4.5 2.9s-3.6-.5-4.5-2.9c-.8-2.4-.6-3.1 1.4-4.7 1.3-1 2.7-1.9 3.1-1.9.4 0 1.8.9 3.1 1.9zm123.4 1.1c-.3.5-1.2 1-1.8 1-.7 0-.6-.4.3-1 1.9-1.2 2.3-1.2 1.5 0zM133 302.5c6.3 3.3 4.4 9.9-4 14.2-5 2.6-14.9 3.1-22.6 1.2-5.5-1.4-11.4-6.6-11.4-10.1 0-4.7 2.5-5.7 15-6.1 6.3-.1 13.4-.4 15.8-.5 2.4-.1 5.6.5 7.2 1.3zm261.5 3.4c.3.5 2 1.2 3.8 1.6 3.7.8 14.9 5.6 14.4 6.2-.3.2-1.7-.1-3.3-.7l-2.9-1 2.8 2.4c2.8 2.6 3.7 5.2 1.4 4.3-.8-.3-4-.8-7.3-1.2-3.2-.3-7.1-1.1-8.7-1.7-3.5-1.3-4.8-5.5-2.3-7.4 1.6-1.1 1.3-1.4-2.6-2.2l-4.3-1 4.2-.1c2.3-.1 4.4.3 4.8.8zM178 308.6c-3.6.8-7.2 1.3-8 1.1-1.7-.4 8.2-2.5 12-2.5 1.4 0-.4.6-4 1.4zm62.3-.9c-1.3.2-3.5.2-5 0-1.6-.2-.5-.4 2.2-.4 2.8 0 4 .2 2.8.4zm25.5 0c-1 .2-2.6.2-3.5 0-1-.3-.2-.5 1.7-.5s2.7.2 1.8.5zm-10 1c-2.1.2-5.7.2-8 0-2.4-.2-.7-.4 3.7-.4s6.3.2 4.3.4zm128.9 1.9c-.2 1.4-.1 4.2.4 6.2 1.1 5.1.3 5.3-1.1.2-.6-2.4-.9-5.3-.6-6.6.8-3.2 2-3.1 1.3.2zm-304.5 1.6c-.7.7-1.2.8-1.2.2 0-1.4 1.2-2.6 1.9-1.9.2.3-.1 1.1-.7 1.7zm87.5-1.6c-.3.3-1.2.4-1.9.1-.8-.3-.5-.6.6-.6 1.1-.1 1.7.2 1.3.5zm-16 5c-.3.3-1.2.4-1.9.1-.8-.3-.5-.6.6-.6 1.1-.1 1.7.2 1.3.5zm265.7 1.5c1.5 1.2 2.5 2.4 2.2 2.6-.3.3-1.9-.6-3.6-2.1-3.7-3.1-2.5-3.5 1.4-.5zm296.5 1.1c5.2 16.8 8.1 51.8 6.2 73.3-4.4 48-19.8 88.4-48.4 126.9-8 10.6-32.9 37.6-34.8 37.6-.5 0-3.1 1.5-5.7 3.3-33.2 23.3-85.8 45.2-132.2 55.1-37.5 8-63.1 7.9-96.5-.5-69.5-17.5-125.2-61.5-156.4-123.7-2.8-5.6-5.1-10.6-5.1-11 0-.5 7.8-1.2 17.3-1.5 31.2-1.1 74.1-9.2 131.7-25 41.6-11.5 107.9-33.5 143-47.5 4.1-1.7 11.6-4.6 16.5-6.5 5-2 17.6-7.2 28-11.6 10.5-4.5 19.4-8.1 19.8-8.1 1 0 52.8-25.6 61.7-30.5 3.6-2 9.4-5.2 13-7.2 8.1-4.5 30.2-18.9 35.4-23.2 2.1-1.7 4.2-3.1 4.7-3.1.4 0 1.2 1.5 1.8 3.2zm-566.6-1.5c-.7.2-1.9.2-2.5 0-.7-.3-.2-.5 1.2-.5s1.9.2 1.3.5zm-5 1c-.7.2-1.9.2-2.5 0-.7-.3-.2-.5 1.2-.5s1.9.2 1.3.5zm-5.6.9c-.3.3-1.2.4-1.9.1-.8-.3-.5-.6.6-.6 1.1-.1 1.7.2 1.3.5zm-7.4 2.1c-.7.2-2.1.2-3 0-1-.3-.4-.5 1.2-.5 1.7 0 2.4.2 1.8.5zm-12 1c-2.4.2-6.2.2-8.5 0-2.4-.2-.5-.4 4.2-.4s6.6.2 4.3.4zm311.7 5.5c2.7 2.9 4.7 5.4 4.5 5.6-.4.5-10.5-9.4-10.5-10.3 0-1.3 1.5-.1 6 4.7zm-20.2 0c2.8 2.8.7 7.8-3.2 7.8-2.1 0-5.6-2.7-5.6-4.3 0-3.6 6.3-6 8.8-3.5zm-16.7 2.5c1.3 1.6 1.2 1.7-.3.4-1-.7-1.8-1.5-1.8-1.7 0-.8.8-.3 2.1 1.3zm372.9 2c25.5 7 41 30.5 41 62 0 17.9-4.6 34.2-13 46-7.8 11.3-19.1 18.2-36.5 22.8-9 2.3-25.1 3.5-26.7 2-.3-.3.7-4 2.2-8.3l2.8-7.7 9.3-.6c25.2-1.7 42.8-14.9 48.5-36.4 1.8-6.7 1.8-20.7-.1-28-2.1-8-6.5-15.3-12.5-20.9-6.4-6-13.1-9-24.5-11.2-4.9-.9-9.5-1.8-10.1-2-.6-.1-1.4-2.6-1.8-5.6-.3-2.9-.9-7.2-1.2-9.5-.6-4-.5-4.2 2.2-4.6 4.4-.7 14.3.3 20.4 2zm-335.5 1.7c.8 1.3 1.3 3.1.9 4-1.4 3.6-9.4 2.7-9.4-1.1 0-2.3 2.9-5.3 5.1-5.3 1 0 2.5 1.1 3.4 2.4zM280 338.5c13.7 2.2 28.3 5.9 28.8 7.3.2.8-1.2 1.2-5 1.2-7.9 0-34.5 4.5-53.6 9-8.6 2-9.4 2.1-11.7.6-1.4-.9-2.5-2.5-2.5-3.5 0-3.2 4.4-8.3 9.6-11.3 8.8-4.9 18.4-5.8 34.4-3.3zm12.8-.8c-1 .2-2.6.2-3.5 0-1-.3-.2-.5 1.7-.5s2.7.2 1.8.5zm20.5 2.3c2.2.9 2.2.9-.3.9-1.4 0-5.9-.7-10-1.4l-7.5-1.4 7.8.5c4.3.3 8.8.9 10 1.4zm8 1.7c-.7.2-2.1.2-3 0-1-.3-.4-.5 1.2-.5 1.7 0 2.4.2 1.8.5zm7.4.9c-.3.3-1.2.4-1.9.1-.8-.3-.5-.6.6-.6 1.1-.1 1.7.2 1.3.5zm78.8 1.2c-.3.3-1.1 0-1.8-.7-.9-1-.8-1.1.6-.5 1 .3 1.5.9 1.2 1.2zM343 346c2 .6 2.1.8.5.8-1.1 0-3.1-.4-4.5-.8-2-.6-2.1-.8-.5-.8 1.1 0 3.1.4 4.5.8zm105.4 2.6c2.2.8 3.7 3.9 3 5.8-.9 2.4-6 2-7.8-.5l-1.4-2.1-.5 2.3c-.4 2.3-.4 2.3-.6.2 0-1.2.9-3.1 2.1-4.3 2.4-2.2 2.8-2.3 5.2-1.4zm-87 5.9c1.1.8 1.5 1.5 1 1.5-.6 0-1.9-.7-3-1.5-1-.8-1.4-1.4-.9-1.4.6 0 1.9.6 2.9 1.4zm-50.3 4.5c2.2 1.2 2.7 6.8.7 8.8-2.8 2.8-9.8.1-9.8-3.7 0-2.6 2.9-6.1 5.1-6.1 1.1 0 2.9.5 4 1zm31.9 4c2.6 2.6 2.5 5 0 7.8-3.4 3.6-8 2.3-9.5-2.5-.4-1.7.1-2.9 1.9-4.8 3-3 4.9-3.2 7.6-.5zm-82 7.5c1.1 3 .4 5.2-2.1 6.6-2.4 1.2-5.5-.3-6.4-3.1-1.7-5.4 6.5-8.8 8.5-3.5zm494.5 4.5c3.8 1.5 10.5 7 13.5 11.2 2.6 3.6 3 4.9 3 11 0 4-.6 8-1.4 9.6-3.6 6.8-14.9 14.2-23.7 15.5-5.5.8-6 0-4.4-6.3 1.6-6.3 5.5-33.4 5.5-38.3 0-5 .7-5.3 7.5-2.7zm-467 5.4c3.1 4.7-2.2 9.3-7 6.2-2.9-1.9-3.2-4.2-.8-6.8 2.3-2.6 5.9-2.3 7.8.6zm-29.1 6.2c2.6.9 4.5 1.8 4.3 2-.2.2-2.8-.5-5.8-1.5-3-1.1-4.9-2-4.3-2 .6-.1 3.2.6 5.8 1.5zm87.5 4.3c1.3 2.4-.8 5.5-3.4 5-2.8-.6-4.2-3.4-2.6-5.3 1.8-2.2 4.8-2 6 .3zm-62.9 3.6c3.6.7 5.2 1.3 3.5 1.3-3.1 0-14.2-2.5-11.5-2.6.8-.1 4.4.5 8 1.3zm-150.5 2.6c-10.7 3.1-14.6 3.7-8 1.3 5.8-2.2 13.7-4.3 16-4.3 1.1 0-2.5 1.4-8 3zm30.4.3c1.7 2 1 6.7-1.1 7.9-2.7 1.8-6.8-.7-6.8-4.1 0-1.5.5-3.3 1.2-4 1.6-1.6 5.3-1.5 6.7.2zm129.8-.8c-.3.3-1.2.4-1.9.1-.8-.3-.5-.6.6-.6 1.1-.1 1.7.2 1.3.5zm8.6 2.1c-.7.2-1.9.2-2.5 0-.7-.3-.2-.5 1.2-.5s1.9.2 1.3.5zm10 1c-1.3.2-3.3.2-4.5 0-1.3-.2-.3-.4 2.2-.4s3.5.2 2.3.4zm43.4-.1c-.3.3-1.2.4-1.9.1-.8-.3-.5-.6.6-.6 1.1-.1 1.7.2 1.3.5zm-222.1 1.6c.4.6.3 1.3-.3 1.5-3.4 1.2-14.5 9.7-25.7 19.7C98.9 430.3 94 434 92.4 434c-1.3 0-2.4-.5-2.4-1.1 0-2.6 7.5-15 12.2-20.3 7.1-8 8.3-8.5 30-12.5.4 0 1 .4 1.4 1.1zm195.7-.5c-2.4.2-6.2.2-8.5 0-2.4-.2-.5-.4 4.2-.4s6.6.2 4.3.4zm18.5 0c-1.6.2-4 .2-5.5 0-1.6-.2-.3-.4 2.7-.4s4.3.2 2.8.4zm-106.7 3.2c-.6 1-3.1 2.4-5.7 3-7.6 1.9-20.4 9.1-24.8 14-2.3 2.5-6.1 2.8-7 .5-2.1-5.4 1.3-11.3 8.5-15 6.2-3.1 11.5-4.1 22.2-4.3 7.3-.1 7.7 0 6.8 1.8zm6.2-.2c-.7.2-1.9.2-2.5 0-.7-.3-.2-.5 1.2-.5s1.9.2 1.3.5zM38 408.1c0 .6-1.2 1.5-2.7 2.1-1.6.6-3.8 2.6-5.1 4.6l-2.3 3.5 2.1 1.4c6.2 4.4-2.4 19.6-9.6 16.9-1.4-.5-1.6-1.6-1.1-5.6.3-2.7 1.3-6.2 2.2-7.7 5.2-9.2 16.5-19.6 16.5-15.2zm6.1 1.6c1.3 1.5 1.2 1.5-.8.4-2.4-1.2-2.9-2.1-1.4-2.1.5 0 1.5.7 2.2 1.7zm219.4.3c1.7 1.1 2.6 2 2.2 2-1.3 0-7.7-2.9-7.7-3.4 0-1.2 2.6-.5 5.5 1.4zm-220.7 3.2c.7.7 1.2 2.1 1.2 3.3 0 4.6-5.3 6.2-7.1 2.1-2.1-4.5 2.6-8.7 5.9-5.4zm96 0c2.1 2.1 1.5 6.7-1.2 7.9-3.4 1.6-6.6-.3-6.6-3.9 0-3.3 1.6-5.2 4.5-5.2 1.2 0 2.6.5 3.3 1.2zm114 0c.7.7 1.2 2.4 1.2 4 0 5-6.6 6.2-9.1 1.7-2.3-4.3 4.4-9.2 7.9-5.7zm-74.4 1.1c-.5 1.4-10.1 4.3-11 3.4-.3-.3 1.8-1 4.5-1.7 2.8-.7 5.4-1.6 5.7-2.1.8-1.4 1.4-1.1.8.4zM48 425l-1.1 2.5.6-2.5c.2-1.4.6-4.3.7-6.5l.1-4 .4 4c.2 2.3-.1 5.2-.7 6.5zm105.5-8.4c2 2.1 1.6 4.3-1.2 6.1-1.9 1.3-2.4 1.2-4.2-.6-2.5-2.5-2.6-3.5-.5-5.5 2-2 3.8-2 5.9 0zm11.4 2.8c-.2.2-2.8 1.3-5.8 2.5-3 1.1-5 1.6-4.5 1.1s2.7-1.6 4.9-2.4c4-1.5 6.2-1.9 5.4-1.2zm-124.4 6.3c1.6 1.6 1.6 3.8 0 7.7-.7 1.5-.5 1.7.6 1.1 1.2-.7 1.2-.6.1.6-.7.8-1.6 1.4-2 1.5-.4 0-1.5.4-2.4.8-4.4 1.9-8.1-1.7-5.9-5.7 1.6-3.1 5.9-7.7 7.1-7.7.5 0 1.6.7 2.5 1.7zm184.7 2.7c.4.6.8 2.3.8 3.8 0 5.1-7.7 6.7-10.6 2.3-1.5-2.3-1.5-2.9-.3-5.2 2.3-4.3 7.6-4.7 10.1-.9zm-78.3-.9c-.9.9-11.9 5.5-11.9 4.9 0-.6 10.1-5.4 11.4-5.4.5 0 .7.2.5.5zm-102.8 3.8c-1 .9-1.1.8-.5-.6.3-1 .9-1.5 1.2-1.2.3.3 0 1.1-.7 1.8zm79.7.3c1.4 1 2.2 2.5 2.2 4.4 0 2.5-.9 3.5-5.6 6.5-3.1 2-5.8 3.4-6.1 3.1-.3-.2.7-1.1 2.2-1.8l2.6-1.4-2.1-1.9c-2.7-2.4-2.6-7 .2-8.9 1.2-.9 2.7-1.6 3.3-1.6.6 0 2.1.7 3.3 1.6zm122-.4c.7.7 1.2 2.1 1.2 3.3 0 2.8-1.9 4.5-5 4.5-4.7 0-6.5-3.7-3.3-7.2 1.8-2.1 5.3-2.4 7.1-.6zM131 435.5c0 .2-1 .9-2.2 1.5-2.2 1.1-2.2 1-.4-.4 2.1-1.7 2.6-1.9 2.6-1.1zM86.4 450c-2.8 15.6-3.5 17.9-2.7 9.5.5-6.2 4.2-23.9 4.9-23.3.1.2-.8 6.4-2.2 13.8zm177-13c-.5.5-2.5 1.2-4.4 1.5l-3.5.6 3.5-1.4c4.4-1.8 5.7-2 4.4-.7zm-242.1 5.5l.6 4-1.5-3.3c-.8-1.8-1.2-3.8-.8-4.3.8-1.4 1-1 1.7 3.6zm233.2-2.5c-.3.5-1.4 1-2.3 1-1.5 0-1.5-.2-.2-1 2-1.3 3.3-1.3 2.5 0zM32 442.5c-1.4.8-2.9 1.4-3.5 1.4-.5 0 .1-.6 1.5-1.4 1.4-.8 3-1.4 3.5-1.4.6 0-.1.6-1.5 1.4zm70 .6c.9 1.6.8 2.6-.5 4.5-.8 1.3-2 2.4-2.5 2.4-1.5 0-4-3-4-4.9 0-4.1 5.1-5.6 7-2zm147.3-1.4c-.7.2-2.1.2-3 0-1-.3-.4-.5 1.2-.5 1.7 0 2.4.2 1.8.5zm-29 1c-.7.2-2.1.2-3 0-1-.3-.4-.5 1.2-.5 1.7 0 2.4.2 1.8.5zm22.5 0c-1 .2-2.8.2-4 0-1.3-.2-.5-.4 1.7-.4 2.2-.1 3.2.1 2.3.4zm-10 1c-2.1.2-5.5.2-7.5 0-2.1-.2-.4-.4 3.7-.4 4.1 0 5.8.2 3.8.4zM107.5 452c-2.1 1.6-4.1 3-4.4 3-1.1-.1 5.9-6 7.1-6 .6 0-.6 1.3-2.7 3zm-7.5 5.8c0 .4-1 1.3-2.2 2.1-2.3 1.4-2.3 1.4-.4-.8 2-2.2 2.6-2.5 2.6-1.3zm-5 4.5c0 .2-1.2 1.4-2.7 2.8l-2.8 2.4 2.4-2.8c2.3-2.5 3.1-3.2 3.1-2.4zm-9 9.6c-1.1 2.1-3 3.7-3 2.5 0-.8 3-4.4 3.7-4.4.2 0-.1.9-.7 1.9zm558.8 112.3c1.6 4.6 2.8 8.7 2.5 9.3-.7 1.6-13.8 11.5-24.3 18.5-42.7 28.1-90.9 43.3-142.1 44.7l-20.6.6-2.8-8.2c-1.5-4.5-2.5-8.4-2.4-8.5.2-.2 4.9-.8 10.4-1.5 48.8-5.8 119.7-30.5 166.5-58 4.7-2.7 8.8-5 9.2-5 .3-.1 2 3.6 3.6 8.1z"/></svg>